<?xml version="1.0" encoding="UTF-8" standalone="no"?>
<!DOCTYPE svg PUBLIC "-//W3C//DTD SVG 1.1//EN" "http://www.w3.org/Graphics/SVG/1.1/DTD/svg11.dtd">
<svg width="100%" height="100%" viewBox="0 0 1024 1024" version="1.1" xmlns="http://www.w3.org/2000/svg" xmlns:xlink="http://www.w3.org/1999/xlink" xml:space="preserve" xmlns:serif="http://www.serif.com/" style="fill-rule:evenodd;clip-rule:evenodd;stroke-linejoin:round;stroke-miterlimit:2;">
    <rect id="Artboard1" x="0" y="0" width="1024" height="1024" style="fill:none;"/>
    <g id="Artboard11" serif:id="Artboard1">
        <path d="M1024,203.013L1024,820.987C1024,933.033 933.033,1024 820.987,1024L203.013,1024C90.967,1024 0,933.033 0,820.987L0,203.013C0,90.967 90.967,0 203.013,0L820.987,0C933.033,0 1024,90.967 1024,203.013Z" style="fill:rgb(14,41,69);"/>
        <g transform="matrix(14.225,0,0,17.222222,199.05,270.888889)">
            <g transform="matrix(2,0,0,2,-2,-10)">
                <path d="M0.89,10C0.89,9.494 1.387,9.083 2,9.083C2.613,9.083 3.11,9.494 3.11,10L3.11,13C3.11,13.506 2.613,13.917 2,13.917C1.387,13.917 0.89,13.506 0.89,13L0.89,10Z" style="fill:rgb(0,165,226);"/>
            </g>
            <g transform="matrix(2,0,0,2,-2,-10)">
                <path d="M4.89,6C4.89,5.494 5.387,5.083 6,5.083C6.613,5.083 7.11,5.494 7.11,6L7.11,17C7.11,17.506 6.613,17.917 6,17.917C5.387,17.917 4.89,17.506 4.89,17L4.89,6Z" style="fill:rgb(0,165,226);"/>
            </g>
            <g transform="matrix(2,0,0,2,-2,-10)">
                <path d="M8.89,3C8.89,2.494 9.387,2.083 10,2.083C10.613,2.083 11.11,2.494 11.11,3L11.11,21C11.11,21.506 10.613,21.917 10,21.917C9.387,21.917 8.89,21.506 8.89,21L8.89,3Z" style="fill:rgb(0,165,226);"/>
            </g>
            <g transform="matrix(2,0,0,2,-2,-10)">
                <path d="M12.89,8C12.89,7.494 13.387,7.083 14,7.083C14.613,7.083 15.11,7.494 15.11,8L15.11,15C15.11,15.506 14.613,15.917 14,15.917C13.387,15.917 12.89,15.506 12.89,15L12.89,8Z" style="fill:rgb(0,165,226);"/>
            </g>
            <g transform="matrix(2,0,0,2,-2,-10)">
                <path d="M16.89,5C16.89,4.494 17.387,4.083 18,4.083C18.613,4.083 19.11,4.494 19.11,5L19.11,18C19.11,18.506 18.613,18.917 18,18.917C17.387,18.917 16.89,18.506 16.89,18L16.89,5Z" style="fill:rgb(0,165,226);"/>
            </g>
            <g transform="matrix(2,0,0,2,-2,-10)">
                <path d="M20.89,10C20.89,9.494 21.387,9.083 22,9.083C22.613,9.083 23.11,9.494 23.11,10L23.11,13C23.11,13.506 22.613,13.917 22,13.917C21.387,13.917 20.89,13.506 20.89,13L20.89,10Z" style="fill:rgb(0,165,226);"/>
            </g>
        </g>
    </g>
</svg>
